<svg xmlns="http://www.w3.org/2000/svg" xmlns:xlink="http://www.w3.org/1999/xlink" width="483.364" height="512" viewBox="0 0 483.364 512">
  <defs>
    <linearGradient id="linear-gradient" y1="0.021" x2="0.905" y2="0.954" gradientUnits="objectBoundingBox">
      <stop offset="0" stop-color="#006034"/>
      <stop offset="1" stop-color="#4bb85f"/>
    </linearGradient>
  </defs>
  <path id="União_5" data-name="União 5" d="M352.627,512a42.738,42.738,0,0,1-41.81-34.134H172.568A42.741,42.741,0,0,1,130.759,512h-76.8a8.508,8.508,0,0,1-3.434-.719q-2.678-.419-5.312-1.081A59.719,59.719,0,0,1,1.821,437.734l45.9-183.8a42.686,42.686,0,0,1,41.327-32.068h.086l101.359-7.893v-28.78A76.626,76.626,0,0,1,164.893,128V93.99q0-.061,0-.123c0-.093,0-.186,0-.279V42.667A42.715,42.715,0,0,1,207.559,0h68.267a42.714,42.714,0,0,1,42.666,42.667V85.333h0V128a76.633,76.633,0,0,1-25.61,57.2v28.77l102.042,7.919a42.753,42.753,0,0,1,40.713,31.973l45.926,183.876a59.711,59.711,0,0,1-48.722,73.546,8.51,8.51,0,0,1-3.416.711Zm0-17.067H420.89v-51.2a8.533,8.533,0,0,0-17.065-.123v25.723a8.522,8.522,0,0,1-7.969,8.514q-.28.018-.564.018H328.485A25.65,25.65,0,0,0,352.625,494.933Zm-290.133-51.2v51.2H130.76A25.647,25.647,0,0,0,154.9,477.866H88.092a8.53,8.53,0,0,1-8.533-8.533v-25.6a8.533,8.533,0,0,0-17.067,0Zm375.467,0v48.722a42.669,42.669,0,0,0,27.057-50.566L450.559,384H403.826v35.6a25.6,25.6,0,0,1,34.134,24.138ZM18.374,441.871a42.668,42.668,0,0,0,27.051,50.58V443.733A25.6,25.6,0,0,1,79.56,419.6V384H32.829ZM386.759,460.8v-128h-102.4v42.665A8.531,8.531,0,0,1,275.826,384H207.559a8.531,8.531,0,0,1-8.533-8.534V332.8H96.626v128h68.267ZM446.3,366.933,419.108,258.066a25.585,25.585,0,0,0-24.772-19.132h-.051l-106.678-8.256L262.29,256h133a8.53,8.53,0,0,1,8.533,8.534v102.4Zm-230.2,0h51.2V332.8h-51.2Zm-136.533,0v-102.4A8.537,8.537,0,0,1,88.093,256h133l-25.323-25.323L89.782,238.9c-12.374,0-22.588,7.9-25.515,19.226l-27.175,108.8Zm307.2-51.2V273.067h-102.4v42.665Zm-119.466,0V273.067h-51.2v42.665Zm-68.267,0V273.067H96.626v42.665Zm42.667-63.265,34.124-34.132V196.795a76.72,76.72,0,0,1-68.258-.007v21.547ZM181.96,128a59.733,59.733,0,0,0,119.466,0V102.4H241.693V128h8.533v17.068H233.159a8.537,8.537,0,0,1-8.533-8.534V102.4H181.96ZM299.966,85.333a25.65,25.65,0,0,0-24.141-17.067H207.559a25.63,25.63,0,0,0-24.132,17.067ZM275.826,51.2a42.444,42.444,0,0,1,25.6,8.554V42.667a25.633,25.633,0,0,0-25.6-25.6H207.56a25.632,25.632,0,0,0-25.6,25.6V59.753a42.447,42.447,0,0,1,25.6-8.553Zm76.792,392.534V426.667h17.067v17.068Zm-34.134,0V426.667h17.067v17.068Z" fill="url(#linear-gradient)"/>
</svg>
