<svg xmlns="http://www.w3.org/2000/svg" xmlns:xlink="http://www.w3.org/1999/xlink" width="375.188" height="512.001" viewBox="0 0 375.188 512.001">
  <defs>
    <linearGradient id="linear-gradient" y1="0.021" x2="0.905" y2="0.954" gradientUnits="objectBoundingBox">
      <stop offset="0" stop-color="#006034"/>
      <stop offset="1" stop-color="#4bb85f"/>
    </linearGradient>
  </defs>
  <path id="União_6" data-name="União 6" d="M176.879,505.539,134.536,353.1H97.1a79.539,79.539,0,0,0-79.448,79.447V512H0V432.551a97.217,97.217,0,0,1,97.1-97.1h35.311v-40.7a106.5,106.5,0,0,1-47.095-56.915,8.935,8.935,0,0,1-.988-.418l-4.892-2.446v43.1L111.218,301.9l-10.593,14.124-35.31-26.482a8.808,8.808,0,0,1-3.531-7.062V226.145L49.02,219.763a8.828,8.828,0,0,1-4.882-7.9V150.069a8.831,8.831,0,0,1,6.682-8.563l2.145-.536v-8.556C52.965,59.4,112.366,0,185.378,0h.018a133.263,133.263,0,0,1,89.089,34.458c10.77-6.876,24.047-12.526,37.924-11.691,15.448.927,28.636,9.446,39.2,25.3,36.643,54.96,19.826,227.955,19.094,235.289a8.812,8.812,0,0,1-5.817,7.433,8.568,8.568,0,0,1-2.957.521,8.834,8.834,0,0,1-6.241-2.587l-19.6-19.6a91.918,91.918,0,0,1-24.689-44.2l-24.976,12.488a9.157,9.157,0,0,1-.99.418,106.5,106.5,0,0,1-47.092,56.915v40.7h35.309a97.217,97.217,0,0,1,97.1,97.1V512H353.1V432.551A79.533,79.533,0,0,0,273.655,353.1H236.233L193.89,505.539a8.829,8.829,0,0,1-17.011,0ZM150.07,343.066l35.31,127.118L220.69,343.066v-40.15a106.063,106.063,0,0,1-70.62,0Zm35.309-51.755a88.377,88.377,0,0,0,88.277-88.276V146.844A129.9,129.9,0,0,1,217.291,92.5c-63.357,42.924-103.5,53.846-120.187,56.621v54.31A88.378,88.378,0,0,0,185.378,291.311Zm128.575-214.5a32.209,32.209,0,0,1,12.677,29.705v97.139a74.372,74.372,0,0,0,21.954,52.992l6.109,6.109c3.319-46.363,8.828-165.014-17.761-204.9-7.441-11.166-15.81-16.879-25.582-17.47-16.989-1.029-36.084,14.267-45.253,23.5q2.772,3.26,5.277,6.736h19.363a32.418,32.418,0,0,1,3.978-.246A32.048,32.048,0,0,1,313.953,76.808ZM291.311,215.235l17.654-8.828V156.964l-17.654-4.414ZM61.793,156.963v49.443l17.654,8.828V152.549Zm247.173-18.2V105.93a8.548,8.548,0,0,1,.1-1.262,14.7,14.7,0,0,0,0-4.131,14.584,14.584,0,0,0-16.5-12.359,7.62,7.62,0,0,1-1.255.1h-9.639a105.314,105.314,0,0,1,9.639,44.14v1.936ZM70.61,132.414v4.144l8.837-2.209v-1.935a105.88,105.88,0,0,1,174.16-80.973c1.723-1.735,3.917-3.842,6.509-6.117a115.542,115.542,0,0,0-74.73-27.669h-.018A114.892,114.892,0,0,0,70.61,132.414Zm26.5-1.263c16.6-3.327,56.3-15.38,118.519-58.933a8.825,8.825,0,0,1,13.126,3.655,112.415,112.415,0,0,0,44.709,50.743,88.277,88.277,0,0,0-176.355,4.536Zm150.06,354.366a8.82,8.82,0,0,1-8.828-8.827V441.38a8.82,8.82,0,0,1,8.828-8.828h70.621a8.82,8.82,0,0,1,8.828,8.828V476.69a8.825,8.825,0,0,1-8.828,8.827ZM256,467.862h52.966V450.207H256ZM167.724,256V238.345h10.328a51.2,51.2,0,0,0,36.4-15.079l12.481,12.491A68.763,68.763,0,0,1,178.051,256Zm0-35.311a8.823,8.823,0,0,1-8.731-10.081l8.828-61.793,17.47,2.5-7.4,51.72h16.3v17.655Zm52.965-52.965a17.655,17.655,0,1,1,17.654,17.655A17.655,17.655,0,0,1,220.69,167.724Zm-105.931,0a17.655,17.655,0,1,1,17.654,17.655A17.655,17.655,0,0,1,114.759,167.724Z" fill="url(#linear-gradient)"/>
</svg>
