<svg xmlns="http://www.w3.org/2000/svg" xmlns:xlink="http://www.w3.org/1999/xlink" width="512" height="511.999" viewBox="0 0 512 511.999">
  <defs>
    <linearGradient id="linear-gradient" y1="0.021" x2="0.905" y2="0.954" gradientUnits="objectBoundingBox">
      <stop offset="0" stop-color="#006034"/>
      <stop offset="1" stop-color="#4bb85f"/>
    </linearGradient>
  </defs>
  <path id="União_1" data-name="União 1" d="M110.934,512a8.542,8.542,0,0,1-7.637-12.356L199.518,307.2H119.466a8.455,8.455,0,0,1-3.575-.785L4.958,255.215A8.531,8.531,0,0,1,0,247.467V213.334H0V128a8.537,8.537,0,0,1,8.533-8.533H42.667a8.553,8.553,0,0,1,7.927,5.359L82.585,204.8H199.522L103.3,12.348A8.533,8.533,0,0,1,110.933,0H179.2a8.544,8.544,0,0,1,7.1,3.8l27.034,40.551V42.667h34.133a25.6,25.6,0,1,1,0,51.2h-1.12l17.066,25.6h26.72a25.6,25.6,0,0,1,6.8,50.283L320.3,204.8H423.851a42.9,42.9,0,0,1,25.6,8.533l50,37.555A31.335,31.335,0,0,1,512,275.883a31.247,31.247,0,0,1-31.121,31.325,1.367,1.367,0,0,0-.2-.009H320.295l-23.366,35.049a25.6,25.6,0,0,1-6.8,50.284H263.406l-17.066,25.6h1.127a25.6,25.6,0,1,1,0,51.2H213.334v-1.691L186.3,508.193A8.532,8.532,0,0,1,179.2,512Zm13.806-17.066h49.9L299.793,307.2H218.607Zm122.727-42.667a8.533,8.533,0,1,0,0-17.066H234.961l-11.377,17.066Zm42.666-76.8a8.533,8.533,0,0,0,0-17.066h-3.971l-11.377,17.066Zm190.721-85.332a14.205,14.205,0,0,0,8.379-25.583L477.845,256H426.667V238.933h28.452l-15.907-11.946a25.735,25.735,0,0,0-15.359-5.12H17.067v20.139l104.278,48.128H315.854ZM64.192,204.8l-27.3-68.269H17.067V204.8Zm154.415,0h81.185L174.634,17.067H124.74Zm71.526-51.2a8.533,8.533,0,0,0,0-17.067H274.791L286.169,153.6ZM247.467,76.8a8.533,8.533,0,0,0,0-17.066H223.591L234.968,76.8ZM392.533,256V238.933H409.6V256ZM358.4,256V238.933h17.068V256Zm-34.133,0V238.933h17.067V256Zm-34.134,0V238.933H307.2V256ZM256,256V238.933h17.068V256Zm-34.132,0V238.933h17.067V256Zm-34.134,0V238.933H204.8V256ZM153.6,256V238.933h17.067V256Z" fill="url(#linear-gradient)"/>
</svg>
