<svg xmlns="http://www.w3.org/2000/svg" xmlns:xlink="http://www.w3.org/1999/xlink" width="512" height="512" viewBox="0 0 512 512">
  <defs>
    <linearGradient id="linear-gradient" y1="0.021" x2="0.905" y2="0.954" gradientUnits="objectBoundingBox">
      <stop offset="0" stop-color="#006034"/>
      <stop offset="1" stop-color="#4bb85f"/>
    </linearGradient>
  </defs>
  <path id="União_3" data-name="União 3" d="M34.133,512A34.168,34.168,0,0,1,0,477.866V162.133A34.168,34.168,0,0,1,34.133,128h85.334v-8.533a34.133,34.133,0,0,1,68.266,0V128h34.134V8.533A8.537,8.537,0,0,1,230.4,0H503.467A8.531,8.531,0,0,1,512,8.533v307.2a8.525,8.525,0,0,1-8.533,8.533H353.4l-46.2,46.2v107.4A34.167,34.167,0,0,1,273.066,512ZM17.066,162.133V477.866a17.085,17.085,0,0,0,17.068,17.068H273.066a17.084,17.084,0,0,0,17.067-17.068V387.533L273.067,404.6v64.734a8.525,8.525,0,0,1-8.533,8.533H42.667a8.53,8.53,0,0,1-8.533-8.533V170.666a8.536,8.536,0,0,1,8.533-8.533H77.681l4.876-17.068H34.133A17.085,17.085,0,0,0,17.066,162.133ZM51.2,460.8H256V421.666l-19.567,19.567a8.513,8.513,0,0,1-6.033,2.5H204.8a8.531,8.531,0,0,1-8.534-8.533V418.134h-76.8V401.067h81.8L256,346.334V179.2h-21.6l4.206,14.72a8.534,8.534,0,0,1-8.2,10.88H76.8a8.535,8.535,0,0,1-8.2-10.88L72.8,179.2H51.2Zm162.133-47.667v13.533h13.533l119.461-119.46-13.534-13.534Zm51.2-251a8.532,8.532,0,0,1,8.534,8.534v158.6L290.134,312.2V162.134a17.083,17.083,0,0,0-17.067-17.067H224.643l4.876,17.066ZM494.934,307.2V110.934H409.6V153.6a8.531,8.531,0,0,1-8.533,8.533H332.8a8.53,8.53,0,0,1-8.533-8.533V110.934H238.934V128h34.133A34.168,34.168,0,0,1,307.2,162.134v133l45.167-45.167a8.523,8.523,0,0,1,12.066,0l25.6,25.6a8.522,8.522,0,0,1,0,12.065L370.466,307.2ZM358.4,295.139,371.934,281.6,358.4,268.066,344.861,281.6ZM88.115,187.733H219.093L206.9,145.067H179.2v0a8.536,8.536,0,0,1-8.533-8.533V119.466a17.067,17.067,0,0,0-34.134,0v17.067A8.535,8.535,0,0,1,128,145.066H100.3Zm253.218-42.665h51.2V110.934h-51.2Zm153.6-51.2v-76.8H409.6v76.8Zm-102.4,0v-76.8h-51.2v76.8Zm-68.266,0v-76.8H238.934v76.8ZM69.951,413.007,95.541,378.87,109.189,389.1,83.6,423.238Zm.005-51.207,25.591-34.136L109.2,337.9,83.6,372.031Zm49.511,5.134V349.867H230.4v17.067ZM69.961,310.6l25.591-34.136L109.2,286.7,83.608,320.835Zm49.506,5.132V298.667H230.4v17.068Zm341.333-25.6V273.067h17.067v17.067Zm-34.133,0V273.067h17.068v17.067ZM69.974,259.441l25.591-34.136,13.655,10.236L83.629,269.677Zm49.493,5.093V247.467H230.4v17.068Z" fill="url(#linear-gradient)"/>
</svg>
