<svg xmlns="http://www.w3.org/2000/svg" xmlns:xlink="http://www.w3.org/1999/xlink" width="511.592" height="512.004" viewBox="0 0 511.592 512.004">
  <defs>
    <linearGradient id="linear-gradient" y1="0.021" x2="0.905" y2="0.954" gradientUnits="objectBoundingBox">
      <stop offset="0" stop-color="#006034"/>
      <stop offset="1" stop-color="#4bb85f"/>
    </linearGradient>
  </defs>
  <path id="União_2" data-name="União 2" d="M226.094,510.273a258.184,258.184,0,0,1-53.788-12.127l-.08.048-.057-.1a254.24,254.24,0,0,1-117.2-83.117c-76.025-95.944-72.556-233.6,6.437-325.644l-4.439-7.52A42.652,42.652,0,0,1,93.493,17.142c.079,0,.169,0,.262,0s.2,0,.293,0a42.63,42.63,0,0,1,33.976,17.013,257.791,257.791,0,0,1,44.056-20.139l.147-.245.2.123A254.159,254.159,0,0,1,316.915,7.562q11.332,2.8,22.246,6.549l.563-.338.4.672A255.951,255.951,0,0,1,458.182,412.353l50.859,50.859a8.521,8.521,0,0,1,0,12.062L474.92,509.395a8.526,8.526,0,0,1-12.062,0l-50.829-50.828a255.958,255.958,0,0,1-72.076,39.228l-.246.409-.34-.2A253.616,253.616,0,0,1,256.061,512,260.507,260.507,0,0,1,226.094,510.273Zm1.962-16.949a238.211,238.211,0,0,0,100.454-9.687A454.509,454.509,0,0,0,363.059,409.6l-2.213-2.213a102.244,102.244,0,0,1-96.681-3.059v89.5H247.1V392.48H143.118a454.749,454.749,0,0,0,40.475,91.407A241.4,241.4,0,0,0,228.056,493.324ZM468.89,491.3l22.059-22.059L397.884,376.18a103.241,103.241,0,0,1-22.059,22.059ZM68.345,404.388a237.721,237.721,0,0,0,90.638,70.256,471.389,471.389,0,0,1-33.733-82.164H59.5Q63.711,398.536,68.345,404.388Zm284.9,69.744A239.882,239.882,0,0,0,399.86,446.4l-23.52-23.52A471.19,471.19,0,0,1,353.247,474.132ZM315.346,401a85.4,85.4,0,1,0-60.854-25.582h1.143v1.142A85.029,85.029,0,0,0,315.346,401Zm130.664-.821q2.885-3.805,5.6-7.7h-13.3Zm-395.1-20.988v-3.773h69.505a469.265,469.265,0,0,1-15.376-110.893H17.185A238.6,238.6,0,0,0,50.909,379.192Zm411.564-3.773a238.2,238.2,0,0,0,31.89-110.893H403.976a102.244,102.244,0,0,1,3.053,96.673l14.219,14.219Zm-230.219,0a102.193,102.193,0,0,1-5.538-110.893H213.141l-26.882,46.891a8.518,8.518,0,0,1-7.353,4.291.071.071,0,0,0-.042-.009,8.544,8.544,0,0,1-7.353-4.206l-27.647-46.967H122.109a452.221,452.221,0,0,0,15.976,110.893Zm-71.767-154.9a25.593,25.593,0,0,0-4.1,31.647,1,1,0,0,1,.051.094l22.324,37.925,22.034-38.437A25.59,25.59,0,0,0,178.8,213.337c-.145-.009-.3-.009-.452-.009A25.472,25.472,0,0,0,160.487,220.519Zm78.087,26.947v.6a103.323,103.323,0,0,1,8.53-8.6V136.573H138.076a452.215,452.215,0,0,0-15.967,110.893h14.386a42.832,42.832,0,1,1,83.966,0Zm255.785,0a238.611,238.611,0,0,0-31.952-110.893H391.468A470.206,470.206,0,0,1,406.8,247.466Zm-389.32,0a469.252,469.252,0,0,1,15.368-110.893H48.813A240.148,240.148,0,0,0,17.2,247.466Zm284.655-2.059a453.143,453.143,0,0,0-15.886-108.834H310.616l-21.988,38.361a8.514,8.514,0,0,1-7.344,4.282h-.06a8.546,8.546,0,0,1-7.353-4.2l-9.707-16.493v68.556a102.214,102.214,0,0,1,125.528,18.333ZM262.85,84.036a25.591,25.591,0,0,0-4.1,31.648.98.98,0,0,1,.05.094l22.324,37.934,22.042-38.446a25.6,25.6,0,0,0-21.991-38.411c-.145-.009-.3-.009-.461-.009A25.472,25.472,0,0,0,262.85,84.036Zm188.732,35.477a236.593,236.593,0,0,0-98.253-81.5,470.468,470.468,0,0,1,33.315,81.5Zm-82.8,0a453.179,453.179,0,0,0-40.118-90.9q-7.81-2.5-15.848-4.484a241.245,241.245,0,0,0-48.657-6.883v45.9a43.342,43.342,0,0,1,17.2-3.351,42.666,42.666,0,0,1,38.742,59.72Zm-127.227,0A42.7,42.7,0,0,1,247.1,76.075V17.21A235.892,235.892,0,0,0,183.52,28.2a454.868,454.868,0,0,0-40.412,91.315Zm-116.318,0a471.158,471.158,0,0,1,33.6-81.924,242.261,242.261,0,0,0-23.5,12.045,42.523,42.523,0,0,1-4.461,31.495l-22.008,38.385Zm-46.023,0-8.612-14.59q-5.81,7.119-10.994,14.59Zm14.829-8.445L116.1,72.6a25.631,25.631,0,0,0-9.348-34.982A27.37,27.37,0,0,0,93.655,34.2h-.043A25.6,25.6,0,0,0,71.6,73.032l.051.076L81.971,90.6l.688.656-.186.2Zm221.3,272.873A68.322,68.322,0,0,1,247.1,315.7h17.06a51.242,51.242,0,0,0,51.19,51.182v17.06ZM366.527,315.7a51.441,51.441,0,0,0-43.87-50.669l2.431-16.881a68.582,68.582,0,0,1,58.5,67.55ZM169.735,247.466V230.406h17.06v17.059ZM272.1,110.982V93.922h17.06v17.06ZM84.859,68.331V51.271h17.06v17.06Z" transform="translate(0.003 0)" fill="url(#linear-gradient)"/>
</svg>
