<svg xmlns="http://www.w3.org/2000/svg" xmlns:xlink="http://www.w3.org/1999/xlink" width="496" height="496" viewBox="0 0 496 496">
  <defs>
    <linearGradient id="linear-gradient" y1="0.021" x2="0.905" y2="0.954" gradientUnits="objectBoundingBox">
      <stop offset="0" stop-color="#006034"/>
      <stop offset="1" stop-color="#4bb85f"/>
    </linearGradient>
  </defs>
  <path id="União_7" data-name="União 7" d="M0,496V479.467H33.067v-74.4H8.267A8.267,8.267,0,0,1,0,396.8V322.4a41.382,41.382,0,0,1,41.333-41.333h.214a40.923,40.923,0,0,1-8.481-24.8V239.733a41.333,41.333,0,0,1,82.667,0v16.534a40.923,40.923,0,0,1-8.481,24.8h.213a45.822,45.822,0,0,1,42.17,27.759l11.572,24.6,11.689-24.8a45.853,45.853,0,0,1,42.036-27.562h.214a40.917,40.917,0,0,1-8.481-24.8V239.733a41.333,41.333,0,1,1,82.666,0v16.534a40.917,40.917,0,0,1-8.48,24.8h.213a45.812,45.812,0,0,1,42.161,27.828L334.8,333.468l11.621-24.731a45.839,45.839,0,0,1,42.113-27.671h.213a40.917,40.917,0,0,1-8.48-24.8V239.733a41.333,41.333,0,1,1,82.666,0v16.534a40.917,40.917,0,0,1-8.481,24.8h.214A41.382,41.382,0,0,1,496,322.4v74.4a8.267,8.267,0,0,1-8.267,8.267h-24.8v74.4H496V496Zm429.867-99.2v82.667H446.4V314.133h16.533v74.4h16.534V322.4a24.8,24.8,0,0,0-24.8-24.8H388.534a29.32,29.32,0,0,0-26.976,17.78c-.032.093-.065.174-.105.266l-34.3,72.887H350.1l30.875-69.488A8.266,8.266,0,0,1,396.8,322.4V479.467h16.533V396.8ZM289.333,479.467h90.934V361.352l-17.244,38.8a8.268,8.268,0,0,1-7.556,4.912H314.133a8.457,8.457,0,0,1-2.224-.323c-.23-.064-.436-.182-.662-.262a8.217,8.217,0,0,1-1.319-.589c-.242-.141-.448-.323-.679-.489a5.392,5.392,0,0,1-1.59-1.509c-.194-.214-.379-.432-.553-.662-.081-.133-.125-.314-.19-.424a3.557,3.557,0,0,1-.222-.314l-17.361-34.811Zm-33.066-74.4v74.4H272.8v-148.8a8.265,8.265,0,0,1,15.706-3.693l25.4,50.872,11.747-24.974-17.519-37.2A29.4,29.4,0,0,0,281.066,297.6H214.934a28.845,28.845,0,0,0-16.078,4.8,29.336,29.336,0,0,0-10.882,12.985l-17.631,37.49,11.309,24.042,25.725-57.867A8.266,8.266,0,0,1,223.2,322.4V479.467h16.533v-74.4Zm-140.533,74.4h90.933V361.352l-17.244,38.8c-.076.166-.158.234-.275.44s-.174.432-.294.637c-.141.182-.291.36-.448.529a8.305,8.305,0,0,1-.57.686,11.349,11.349,0,0,1-1.711,1.4,8.423,8.423,0,0,1-1.348.63c-.222.1-.448.185-.679.262a8.025,8.025,0,0,1-2.232.331H140.533a8.269,8.269,0,0,1-7.4-4.573l-17.4-34.811ZM82.667,396.8v82.667H99.2v-148.8a8.265,8.265,0,0,1,15.706-3.693l30.738,61.56h23.2l-34.3-72.887A29.4,29.4,0,0,0,107.466,297.6H41.333a24.8,24.8,0,0,0-24.8,24.8v66.134H33.067V322.4H49.6V479.467H66.133V396.8ZM396.8,239.733v16.534a24.8,24.8,0,0,0,49.6,0V239.733a24.8,24.8,0,0,0-49.6,0Zm-173.6,0v16.534a24.8,24.8,0,0,0,49.6,0V239.733a24.8,24.8,0,0,0-49.6,0Zm-173.6,0v16.534a24.8,24.8,0,0,0,49.6,0V239.733a24.8,24.8,0,0,0-49.6,0Zm272.8,41.333V264.533h16.533v16.533Zm-165.333,0V264.533H173.6v16.533Zm322.4-8.267V99.2H372V248H355.467V148.8h-49.6v49.6H289.333V16.533H206.667V198.4H190.133V148.8h-49.6v57.867H124V99.2H16.533V272.8H0V90.933a8.267,8.267,0,0,1,8.267-8.267h8.267v-24.8A8.268,8.268,0,0,1,24.8,49.6h90.933A8.267,8.267,0,0,1,124,57.866v24.8h8.267a8.267,8.267,0,0,1,8.266,8.267v41.333h16.534v-74.4a8.267,8.267,0,0,1,8.266-8.266h24.8V8.267A8.267,8.267,0,0,1,198.4,0h99.2a8.267,8.267,0,0,1,8.267,8.267V49.6h24.8a8.268,8.268,0,0,1,8.267,8.266v74.4h16.533V90.933a8.267,8.267,0,0,1,8.267-8.267H372v-24.8a8.268,8.268,0,0,1,8.267-8.266H471.2a8.267,8.267,0,0,1,8.267,8.266v24.8h8.266A8.267,8.267,0,0,1,496,90.933V272.8Zm-173.6-140.533H322.4V66.133H305.867Zm-132.267,0h16.533V66.133H173.6Zm214.934-49.6h74.4V66.133h-74.4Zm-355.467,0h74.4V66.133h-74.4ZM322.4,248V231.467h16.533V248Zm-165.333,0V231.467H173.6V248ZM322.4,214.934V198.4h16.533v16.534Zm-165.333,0V198.4H173.6v16.534ZM322.4,181.867V165.334h16.533v16.533Zm-66.133,0V165.334H272.8v16.533Zm-33.067,0V165.334h16.534v16.533Zm-66.133,0V165.334H173.6v16.533Zm281.066-16.533V148.8H471.2v16.534Zm-49.6,0V148.8H421.6v16.534Zm-355.467,0V148.8h74.4v16.534Zm223.2-16.534V132.267H272.8V148.8Zm-33.067,0V132.267h16.534V148.8Zm214.934-16.533V115.734H471.2v16.533Zm-49.6,0V115.734H421.6v16.533Zm-355.467,0V115.734h74.4v16.533Zm223.2-16.533V99.2H272.8v16.534Zm-33.067,0V99.2h16.534v16.534Zm33.067-33.067V66.134H272.8V82.667Zm-33.067,0V66.134h16.534V82.667ZM256.267,49.6V33.067H272.8V49.6Zm-33.067,0V33.067h16.534V49.6Z" fill="url(#linear-gradient)"/>
</svg>
