<svg xmlns="http://www.w3.org/2000/svg" xmlns:xlink="http://www.w3.org/1999/xlink" width="469.343" height="511.998" viewBox="0 0 469.343 511.998">
  <defs>
    <linearGradient id="linear-gradient" y1="0.021" x2="0.905" y2="0.954" gradientUnits="objectBoundingBox">
      <stop offset="0" stop-color="#006034"/>
      <stop offset="1" stop-color="#4bb85f"/>
    </linearGradient>
  </defs>
  <path id="União_4" data-name="União 4" d="M322.194,511.742a188.545,188.545,0,0,1-115.586-85.076H8.533A8.53,8.53,0,0,1,0,418.133V8.533A8.537,8.537,0,0,1,8.533,0h409.6a8.532,8.532,0,0,1,8.534,8.533V226.98a172.74,172.74,0,0,0,34.142,3.42,8.532,8.532,0,0,1,8.534,8.532v89.685A188.587,188.587,0,0,1,326.35,511.742a8.678,8.678,0,0,1-2.082.257A8.559,8.559,0,0,1,322.194,511.742Zm-9.413-311.329A189.8,189.8,0,0,1,196.267,247.27v81.349a171.534,171.534,0,0,0,128,166.042,171.546,171.546,0,0,0,128-166.042V247.27A189.883,189.883,0,0,1,335.71,200.379l-11.443-9.9ZM17.067,409.6H197.4a188.637,188.637,0,0,1-18.2-80.983V238.932a8.531,8.531,0,0,1,8.533-8.533,172.8,172.8,0,0,0,113.843-42.854l17.109-14.8a8.54,8.54,0,0,1,11.171,0l17.067,14.764A173.015,173.015,0,0,0,409.6,222.617V102.4H273.066v59.733a8.531,8.531,0,0,1-8.534,8.533h-102.4a8.536,8.536,0,0,1-8.533-8.533V102.4H17.067V85.333H153.6V17.067H17.067Zm153.6-256H256V102.4H170.667ZM409.6,85.333V17.067H273.066V85.333Zm-153.6,0V17.067H170.667V85.333Zm62.234,313.234L275.566,355.9l12.066-12.066,36.634,36.634L420.634,284.1,432.7,296.167l-102.4,102.4a8.529,8.529,0,0,1-12.066,0Z" fill="url(#linear-gradient)"/>
</svg>
